<?xml version="1.0" encoding="UTF-8"?>
<svg id="Camada_1" xmlns="http://www.w3.org/2000/svg" viewBox="0 0 55.49 56.25">
  <defs>
    <style>
      .cls-1 {
        fill: #fef7c2;
      }

      .cls-2 {
        fill: #fffcf9;
      }

      .cls-3 {
        fill: #4b3a28;
      }
    </style>
  </defs>
  <path class="cls-3" d="M54.87,46.87L12.73,2.62c-.84-.89-2.24-.9-3.11-.03h0c-.88.87-.9,2.3-.06,3.18l42.14,44.25c.84.89,2.24.9,3.11.03h0c.88-.87.9-2.3.06-3.18Z"/>
  <path class="cls-3" d="M45.93,52.42L3.79,8.17c-.84-.89-2.24-.9-3.11-.03h0c-.88.87-.9,2.3-.06,3.18l42.14,44.25c.84.89,2.24.9,3.11.03h0c.88-.87.9-2.3.06-3.18Z"/>
  <path class="cls-3" d="M46.04,44.92L3.9.67c-.84-.89-2.24-.9-3.11-.03h0C-.09,1.52-.12,2.94.73,3.83l42.14,44.25c.84.89,2.24.9,3.11.03h0c.88-.87.9-2.3.06-3.18Z"/>
  <g>
    <path class="cls-2" d="M20.12,19.61c-.12-1.41-.12-3.32.38-5.49,1.05-4.49,3.63-7.4,4.92-8.67,1.16.83,3.47,2.72,5.01,6.04,1.24,2.69,1.44,5.14,1.45,6.53,1.3-.67,3.8-1.72,7.08-1.8,3.3-.08,5.83.86,7.16,1.46-.33,1.45-1.25,4.54-3.85,7.45-2.55,2.85-5.41,4.06-6.78,4.54.79,1.02,2.55,3.58,2.96,7.39.4,3.73-.72,6.6-1.27,7.79-1.32-.14-4.1-.61-6.9-2.63-2.56-1.85-3.9-4.1-4.5-5.29-.94,1.24-3.18,3.82-6.95,5.32-2.76,1.1-5.2,1.16-6.64,1.09-.18-1.61-.25-4.11.47-7.04.6-2.44,1.55-4.32,2.32-5.59-1.33-.51-3.33-1.48-5.34-3.27-2.07-1.85-3.3-3.82-3.97-5.12,1.1-.92,3.71-2.83,7.55-3.39,3.11-.45,5.61.21,6.92.66Z"/>
    <ellipse class="cls-1" cx="25.79" cy="26.86" rx="5.24" ry="5.11" transform="translate(-6 46.25) rotate(-77.55)"/>
  </g>
</svg>